<?xml version="1.0" encoding="utf-8"?>
<!-- Generator: Adobe Illustrator 24.2.1, SVG Export Plug-In . SVG Version: 6.00 Build 0)  -->
<svg version="1.2" baseProfile="tiny" id="Layer_1" xmlns="http://www.w3.org/2000/svg" xmlns:xlink="http://www.w3.org/1999/xlink"
	 x="0px" y="0px" viewBox="0 0 288 78.3" overflow="visible" xml:space="preserve">
<g>
	<path fill="#FFFFFF" d="M56.9,77.1H42.3l-6.1-23.6c-1.4-4.6-4.3-6.8-8.8-6.8l-13.7-0.1v30.6H0V1c6.5-0.7,15.8-1,27.7-1
		c9.6,0,16.5,1.6,20.5,4.8c4,3.2,6,9,6,17.5c0,5.9-1.1,10.4-3.3,13.5c-2.2,3.1-5.8,5-10.9,5.7V42c2.2,0.5,4.3,1.7,6.2,3.5
		c1.9,1.8,3.2,4.4,4,7.7L56.9,77.1z M13.7,35.3h13.7c4.9-0.1,8.3-1,10.1-2.6c1.8-1.7,2.7-4.9,2.7-9.5c0-4.6-0.9-7.8-2.7-9.4
		c-1.8-1.6-5.2-2.4-10.1-2.4H13.7V35.3z"/>
	<path fill="#FFFFFF" d="M107.6,65.9l0.7,10.6c-5.9,0.6-16,0.9-30.3,0.9c-4.3,0-7.8-1.2-10.4-3.5c-2.6-2.4-3.9-5.6-4-9.6V24.7
		c0.1-4,1.4-7.2,4-9.6c2.6-2.4,6.1-3.5,10.4-3.5c14.2,0,24.3,0.3,30.3,0.9l-0.7,10.7H82.6c-1.6,0-2.7,0.4-3.4,1.1
		c-0.7,0.8-1,2-1,3.7V38h26v10.4h-26v12.6c0,1.8,0.3,3,1,3.8c0.7,0.8,1.8,1.1,3.4,1.1H107.6z"/>
	<path fill="#FFFFFF" d="M173,11.9l-17.7,61.3c-0.3,1.2-0.9,2.2-1.8,2.9c-0.9,0.7-2,1.1-3.3,1.1h-13.1c-1.3,0-2.3-0.4-3.3-1.1
		c-0.9-0.7-1.5-1.7-1.8-2.9l-17.8-61.3h14.8L140.9,59c0.6,2.5,1.2,4.9,1.6,7.3h2.4c0.2-1.2,0.7-3.6,1.6-7.3l11.7-47.1H173z"/>
	<path fill="#FFFFFF" d="M232.3,11.9v39.2c0,10-1.9,17-5.7,21.1c-3.8,4.1-10.4,6.1-19.7,6.1c-9.8,0-16.8-2-20.8-6.1
		c-4-4.1-6-11.1-6-21.1V11.9h14.4v39.2c0,6,0.8,10.1,2.5,12.3c1.7,2.2,4.7,3.3,9.2,3.3c4.4,0,7.5-1.1,9.1-3.3
		c1.7-2.2,2.5-6.3,2.5-12.3V11.9H232.3z"/>
	<path fill="#FFFFFF" d="M287.3,65.9l0.7,10.6c-5.9,0.6-16,0.9-30.3,0.9c-4.4,0-7.8-1.2-10.4-3.5c-2.6-2.4-3.9-5.6-4-9.6V24.7
		c0.1-4,1.4-7.2,4-9.6c2.6-2.4,6.1-3.5,10.4-3.5c14.2,0,24.3,0.3,30.3,0.9l-0.7,10.7h-25.1c-1.6,0-2.7,0.4-3.4,1.1
		c-0.7,0.8-1,2-1,3.7V38h26v10.4h-26v12.6c0,1.8,0.3,3,1,3.8c0.7,0.8,1.8,1.1,3.4,1.1H287.3z"/>
</g>
</svg>
